<svg version="1" xmlns="http://www.w3.org/2000/svg" width="3413.333" height="3413.333" viewBox="0 0 2560.000000 2560.000000"><path d="M256 136.2c0 46.9.5 174.8 1 284.3 1.1 234.2 2.8 686.1 4 1046.5.9 281.6.5 265.7 7.1 305 29.6 178.1 156.7 327.6 392.1 461.4 104.2 59.2 225.6 114.9 411.3 188.9 84.7 33.7 207.2 81.7 208.5 81.7.7 0 21.1-7.7 45.4-17.1 24.3-9.4 65.9-25.6 92.6-35.9 193-74.8 288.3-115.3 388.5-165 54.4-27 85.9-44 128.5-69.3 140.4-83.6 239.4-174.3 299.7-275 10.7-17.8 28.4-53.8 35.6-72.2 18.3-46.5 29-94.1 32.7-144 .7-9.3 1-290.4 1-844.3V51H256v85.2zm1965.3 765c-.1 422-.5 779.4-.7 794.3-.5 28.5-2 45.7-6.2 68.5-11.4 62.5-37.9 121.5-79 176.6-73.3 98-193.9 186.8-373.9 275-99 48.5-191.2 87.2-407.1 170.8l-74.2 28.7-23.3-9.1c-100-39.4-128.1-50.5-169.4-67-166-66.4-275.4-116.4-371.5-169.8-231.1-128.4-348.5-264.9-368.5-428.7-3.1-25.1-3.5-48.7-3.5-205.5 0-163-.9-435.1-3.5-1036-.8-189.5-1.5-349.1-1.5-354.8V134H2221.7l-.4 767.2z"/><path d="M553.5 241.7c-9.7 12.3-44 64.4-73.8 112.2-11.5 18.5-13.7 22.5-12.6 23.6.8.7 10.1 5.6 20.7 11 18.1 9.2 19.4 9.7 21 8.1.9-.9 4.4-6.7 7.7-12.9 5-9.3 6.6-11.5 9.6-13 5-2.4 20-3.6 45.4-3.7h21l8.9 15.1c8.9 15 8.9 15.1 12 14.5 4.6-.9 21.8-9.7 32.4-16.6l9.3-6-7.8-11.3c-49-70.9-87.9-126.7-88.5-126.7-.4 0-2.8 2.6-5.3 5.7zm8.8 69.7c5.3 9.3 10.6 21.2 10.7 23.8 0 1.6-1.2 1.8-8.7 2-9.5.3-24.5-.1-25-.6s16.8-33.6 17.5-33.6c.4 0 2.9 3.8 5.5 8.4zM2003.3 244.1c-17.6 1.7-40.4 7.4-51.3 12.9-14.3 7.2-27.1 20.4-34.6 35.5-5.8 11.8-7.5 18.8-7.6 31-.1 19.2 5.6 33 19.2 46.5 9.6 9.6 16.3 13.9 28.8 18.6 21.8 8.1 54.9 8.6 78.8 1.3 9.5-2.9 22.7-9.8 30.1-15.9 37.3-30.2 36.6-88.5-1.2-115.5-11.6-8.3-24-12.7-40.5-14.5-10.4-1.1-10-1.1-21.7.1zm13.4 34.1c3.9 1.4 7.4 3.8 10.8 7.2 22.5 22.5 12.7 66.7-16.5 74.6-2.5.7-7.9 1.2-12.1 1.2-16.5-.2-27.8-8.6-32.3-24.1-1.8-6.2-2.1-20.3-.5-27 5.5-24 30.2-39.6 50.6-31.9zM734 247.6c-22.3 4.6-32.8 7.7-43.7 13-11.9 5.7-21 14-25.4 23-8.3 16.7-3.1 28 18.7 41.3 17.4 10.6 22.6 14.4 25.5 18.4 1.6 2.2 2.9 4.6 2.9 5.4 0 2-13.3 7.9-20.5 9.1-3.3.6-9.9 1.4-14.7 1.7l-8.8.7v3.9c0 2.2 1.1 9 2.5 15.1s2.5 12.2 2.5 13.6c0 2.5 0 2.5 7.3 1.8 29.8-2.9 62.2-16.4 76.4-32 10.7-11.7 14.9-25.5 10.5-34.3-3.2-6.2-10.7-12.2-23.3-18.7-21.1-10.9-29.2-17.3-27-21.4 3.2-6.1 15.5-10.2 30.3-10.2 5.3 0 9.9-.3 10.1-.8.6-1-5.5-33.2-6.2-33.1-.3.1-8 1.6-17.1 3.5zM794 319.5V395h51v-33c0-18.2.3-33 .8-33 1.7 0 15.8 15.6 29.7 32.8 15.1 18.8 22.7 27.1 28 30.9l3 2.1 5.5-4.9c6.2-5.6 26.3-21 29.8-22.8 1.2-.6 2.2-1.8 2.2-2.5 0-2.3-7.9-10.4-23.5-24.1-13.2-11.5-20.4-18.9-22.8-23.1-.5-.9 25-25.8 41-39.9l3.4-3-3.1-3.7c-4.2-5-17.9-16-26.4-21.1l-6.9-4.1-6.6 7.2c-3.6 4-16.9 18.2-29.6 31.5l-23 24.4-.6-28.1c-.3-15.5-.7-30-.8-32.4l-.1-4.2h-51v75.5zM1075.4 248c-10 2-21.9 5-26.5 6.5-19.8 6.5-34 16.9-40.1 29.3-8.4 17.1-1 31.2 23.3 44.4 5.7 3.1 12.1 6.7 14.2 8 3.8 2.3 9.7 9.9 9.7 12.5 0 1.8-10.9 7.1-18.2 8.8-3.5.7-10.6 1.7-15.8 2.1l-9.6.6 2.6 17.2 2.6 17.1 5.4-.3c23.6-1.3 54.5-12.3 70.7-25.2 10.7-8.6 19.3-23.2 19.3-32.7-.1-10.2-7.5-17.5-29.3-28.9-14.7-7.7-23.7-14.3-23.7-17.5 0-2.3 4.9-6.5 10.5-9 4.1-1.9 7.3-2.4 17.8-2.7l12.7-.4-.1-2.7c-.1-4.9-5.5-30.5-6.4-30.7-.6-.1-9.2 1.5-19.1 3.6zM1200.2 247c-22.9 3.5-34.7 8-46.7 17.9-13.4 11-25.3 28.7-29 43-2.1 8.2-2.1 24.6 0 32.6 8.7 32.7 38.1 52.4 81 54.2 22.9.9 39.8-2.2 57-10.6 17.2-8.5 28.5-19.6 37-36.3 6-12 7.9-21 7.3-35.6-.4-9.2-1-13.3-3.1-19-8.7-24.8-29.9-41.7-58.2-46.7-11.5-2-30-1.8-45.3.5zm31.4 31.4c12.9 6 20.4 20.4 20.4 39.1 0 27.9-15.1 44.6-40.4 44.6-6.8.1-8.7-.4-14.3-3.1-11.7-5.8-18.1-17.1-19-33.5-1.1-19.6 7.5-37.7 21.1-44.7 10.6-5.5 23.6-6.4 32.2-2.4zM1827.1 246.6c-20 .8-36.5 1.5-36.7 1.7-.2.2-.7 32.6-1 72l-.7 71.7h4.4c2.4 0 24.2.7 48.4 1.5s44.8 1.5 45.8 1.5c1.6 0 1.7-1.5 1.7-18v-18h-51v-24l20.8-.2 20.7-.3v-33l-20.8.4-20.9.3.4-9.9c.2-6.1.8-10.6 1.6-11.5 1-1.2 5.4-1.7 23-2.2 11.9-.4 22-1.1 22.5-1.5.4-.4.4-7.8.1-16.4l-.7-15.7-10.6.1c-5.8.1-27 .8-47 1.5zM1334 319.5V392h3.8c2 0 21 .7 42.2 1.5 21.2.8 42.4 1.5 47.3 1.5h8.7v-39h-51V247h-51v72.5zM1460 319.5V392h52V247h-52v72.5zM1604.6 318.6c-.4 39.4-.5 71.9-.2 72.1 1.5 1.5 29.8 1.4 41.2-.1 47-6.2 90.7-28.8 106.6-55.1 6.5-10.7 8.2-17.4 8.3-31 0-11.2-.2-12.4-2.9-18.3-3.8-8.3-13.5-17.4-23.6-22.4-23.2-11.4-58.6-16.8-111.1-16.8h-17.6l-.7 71.6zm76.9-36.2c22.2 5.9 31.6 24.2 22.3 43.6-3 6.3-13.1 15.8-21.4 20.1-9.4 5-24 9.7-25.5 8.2-1.6-1.6-3.1-32.2-2.7-53.6.3-14.4.6-18 1.8-18.7 2.2-1.4 19.8-1.2 25.5.4zM1266.5 506.4c-14.3 2.8-26.2 8.3-36.9 17.2-8.7 7.2-14.7 14.9-20.1 25.9-5.3 10.6-7.4 18-8.2 29.2l-.6 8.3h-5.6c-3.1 0-9.5.5-14.1 1.1-51.7 6.4-83.2 59.5-63.9 107.7 6.8 17.1 20.8 32.4 37.1 40.6 12.5 6.3 22.3 8.6 36 8.6h10.8v249H978v-9.3c0-40.8-31-74-73-78.2-20.2-2-45.4 7.3-60.8 22.4-15 14.8-22.5 32.2-23.9 55.3l-.6 10.8h-4.1c-2.3 0-7 .7-10.6 1.5-35.3 8.2-59.9 37.2-61.7 72.6-1.2 22.4 5.8 42 21 58.6 10.9 11.9 29.5 21.9 44.4 23.8 2.7.3 6.2.8 7.9 1.1l3.1.4.6 12.3c1.2 25.3 10.9 45.7 28.6 60.3 7.5 6.3 21.6 13.5 30.9 15.9 40.6 10.3 82.3-13.3 95.2-54 1.6-5.2 2.4-10.7 2.9-21l.6-14 111.3-.3 111.2-.2v286H735v-9.8c0-31.2-17.7-58.6-46.2-71.6-11.3-5.2-19.6-7-32.8-6.9-21.6 0-40.4 7.7-55.5 22.8-14.4 14.4-22 32.1-23.2 54.2l-.6 11.3h-3.3c-11.4 0-30.6 6.5-41 13.9-35.8 25.4-45.1 72.3-21.4 108.4 5.6 8.6 17.3 19.8 26.1 25 8.3 4.8 22.5 9.4 32.2 10.3l7.7.7v7.6c.1 35.5 18.5 64.1 49.4 77 7.9 3.3 21.8 6.1 30 6.1 19 0 39.1-8.1 53.3-21.3 16.9-15.9 25.3-35.4 25.3-59.3V1596h466v587h158v-587h146.8c80.7 0 185.5.3 232.8.7l86.1.6.6 11.1c1.2 25.5 13.8 47.4 35.4 61.6 40.3 26.5 94.6 10.8 114.7-33.2 4.4-9.5 6.5-18.3 7.3-30.1.7-10.6.7-10.7 8.4-10.7 6 0 18.9-3.8 27.5-8 19.3-9.6 33.6-26.9 40.6-49 1.9-6.4 2.3-9.6 2.3-21.5s-.4-15.1-2.3-21.5c-10-31.8-36.3-53.9-67.4-56.7l-8.3-.8-.6-12.5c-1.4-26.5-8.6-43-25.9-59.3-38-35.8-100.7-24.2-123.9 22.8-5.8 11.7-7.2 18-7.8 34.2l-.6 14.3H1359v-286h223v10.7c0 32.4 17.3 59.5 46.2 72.7 11.1 5.1 19.6 6.9 32.3 6.9 22.4 0 40.6-7.6 56.3-23.3 15.1-15.1 23.2-36.2 23.2-60.6v-7.4h4.3c6.5 0 19.9-3.6 27.9-7.5 20-9.5 34.9-27.1 41.8-49 2.8-8.8 3.7-25.5 2.1-35.1-4.4-24.8-20.4-46.5-42.8-57.8-6.2-3.1-21.3-7.6-25.7-7.6-7 0-7.6-.6-7.6-7.4-.2-43.9-31.7-78.4-74.5-81.3-35.5-2.4-68.9 20.6-80.1 55.2-2 6-2.8 11.1-3.3 20.5l-.6 12.5-111.2.3-111.3.2V745h10.8c39 0 71-27.2 77.8-66.1 4.3-24.7-4.2-50.7-22.4-68.6-14.9-14.6-31.6-21.6-54.7-23l-11.2-.6-.6-8.1c-2.2-29-19.6-54-46-66.1-14.2-6.5-32.2-8.8-46.2-6.1z"/></svg>