<?xml version="1.0" encoding="UTF-8" standalone="no"?>
<!-- Creator: CorelDRAW X8 -->

<svg
   xmlns:dc="http://purl.org/dc/elements/1.1/"
   xmlns:cc="http://creativecommons.org/ns#"
   xmlns:rdf="http://www.w3.org/1999/02/22-rdf-syntax-ns#"
   xmlns:svg="http://www.w3.org/2000/svg"
   xmlns="http://www.w3.org/2000/svg"
   xmlns:sodipodi="http://sodipodi.sourceforge.net/DTD/sodipodi-0.dtd"
   xmlns:inkscape="http://www.inkscape.org/namespaces/inkscape"
   xml:space="preserve"
   width="500"
   height="600"
   version="1.1"
   style="clip-rule:evenodd;fill-rule:evenodd;image-rendering:optimizeQuality;shape-rendering:geometricPrecision;text-rendering:geometricPrecision"
   viewBox="0 0 14111.112 16933.335"
   id="svg2"
   inkscape:version="0.91 r13725"
   sodipodi:docname="asksolideo-logo.svg"><metadata
     id="metadata57"><rdf:RDF><cc:Work
         rdf:about=""><dc:format>image/svg+xml</dc:format><dc:type
           rdf:resource="http://purl.org/dc/dcmitype/StillImage" /><dc:title /></cc:Work></rdf:RDF></metadata><sodipodi:namedview
     pagecolor="#ffffff"
     bordercolor="#666666"
     borderopacity="1"
     objecttolerance="10"
     gridtolerance="10"
     guidetolerance="10"
     inkscape:pageopacity="0"
     inkscape:pageshadow="2"
     inkscape:window-width="1449"
     inkscape:window-height="974"
     id="namedview55"
     showgrid="false"
     inkscape:zoom="1.4142136"
     inkscape:cx="129.35414"
     inkscape:cy="66.948271"
     inkscape:window-x="344"
     inkscape:window-y="23"
     inkscape:window-maximized="0"
     inkscape:current-layer="svg2"
     showguides="true"
     inkscape:guide-bbox="true"
     units="px"><sodipodi:guide
       position="7055.556,17355.786"
       orientation="1,0"
       id="guide4357" /></sodipodi:namedview><defs
     id="defs4"><style
       type="text/css"
       id="style6"><![CDATA[
    .fil1 {fill:black}
    .fil0 {fill:#FDFB26}
    .fil3 {fill:#FDFD45}
    .fil4 {fill:#FEF626}
    .fil2 {fill:#FEFF44}
   ]]></style><clipPath
       id="id0"><rect
         x="1039"
         y="796"
         width="12854"
         height="14903"
         id="rect9" /></clipPath><marker
       inkscape:isstock="true"
       style="overflow:visible"
       id="Arrow1Lstart"
       refX="0"
       refY="0"
       orient="auto"
       inkscape:stockid="Arrow1Lstart"><path
         transform="matrix(0.8,0,0,0.8,10,0)"
         style="fill:#000000;fill-opacity:1;fill-rule:evenodd;stroke:#000000;stroke-width:1pt;stroke-opacity:1"
         d="M 0,0 5,-5 -12.5,0 5,5 0,0 Z"
         id="path4314"
         inkscape:connector-curvature="0" /></marker><style
       type="text/css"
       id="style6-1"><![CDATA[
    .fil1 {fill:black}
    .fil0 {fill:#FDFB26}
    .fil3 {fill:#FDFD45}
    .fil4 {fill:#FEF626}
    .fil2 {fill:#FEFF44}
   ]]></style><clipPath
       id="id0-2"><rect
         x="1039"
         y="796"
         width="12854"
         height="14903"
         id="rect9-8" /></clipPath></defs><path
     style="fill:#fffd27;fill-opacity:1;fill-rule:evenodd;stroke:#000000;stroke-width:572.91125488;stroke-linecap:butt;stroke-linejoin:miter;stroke-miterlimit:4;stroke-dasharray:none;stroke-opacity:1"
     d="m 283.56008,282.22144 13546.66892,0 -3.694,11005.23956 c 0,2867.699 -3673.787,4099.258 -6770.9787,5307.209 C 3907.6345,15349.067 322.23355,14117.422 322.23355,11287.461 322.23355,8457.5003 283.56008,282.22144 283.56008,282.22144 Z"
     id="path3436"
     inkscape:connector-curvature="0"
     sodipodi:nodetypes="cczczc" /><path
     style="fill:none;fill-rule:evenodd;stroke:#000000;stroke-width:1088.39746094;stroke-linecap:round;stroke-linejoin:miter;stroke-miterlimit:4;stroke-dasharray:none;stroke-opacity:1"
     d="m 6437.0815,4239.5898 1236.9495,0"
     id="path4269"
     inkscape:connector-curvature="0"
     sodipodi:nodetypes="cc" /><g
     id="g4361"
     transform="translate(96.822614,0)"
     style="stroke:#000000;stroke-opacity:1"><path
       style="fill:none;fill-rule:evenodd;stroke:#000000;stroke-width:1088.39746094;stroke-linecap:round;stroke-linejoin:miter;stroke-miterlimit:4;stroke-dasharray:none;stroke-opacity:1"
       d="m 4335.4985,6436.7208 0,1236.95"
       id="path4280"
       inkscape:connector-curvature="0"
       sodipodi:nodetypes="cc" /><path
       sodipodi:nodetypes="cc"
       inkscape:connector-curvature="0"
       id="path4302"
       d="m 9581.9688,6427.9768 0,1236.949"
       style="fill:none;fill-rule:evenodd;stroke:#000000;stroke-width:1088.39746094;stroke-linecap:round;stroke-linejoin:miter;stroke-miterlimit:4;stroke-dasharray:none;stroke-opacity:1" /></g><g
     id="g4365"
     transform="translate(74.962314,0)"
     style="stroke:#000000;stroke-opacity:1"><path
       sodipodi:nodetypes="cc"
       inkscape:connector-curvature="0"
       id="path4304"
       d="m 2682.8609,9488.4188 0,1236.9482"
       style="fill:none;fill-rule:evenodd;stroke:#000000;stroke-width:1088.39746094;stroke-linecap:round;stroke-linejoin:miter;stroke-miterlimit:4;stroke-dasharray:none;stroke-opacity:1" /><path
       style="fill:none;fill-rule:evenodd;stroke:#000000;stroke-width:1088.39746094;stroke-linecap:round;stroke-linejoin:miter;stroke-miterlimit:4;stroke-dasharray:none;stroke-opacity:1"
       d="m 11278.327,9462.1858 0,1236.9502"
       id="path4306"
       inkscape:connector-curvature="0"
       sodipodi:nodetypes="cc" /></g><path
     sodipodi:nodetypes="cc"
     inkscape:connector-curvature="0"
     id="path4308"
     d="m 7055.5563,14686.452 0,-11012.8712"
     style="fill:none;fill-rule:evenodd;stroke:#000000;stroke-width:1088.39746094;stroke-linecap:butt;stroke-linejoin:miter;stroke-miterlimit:4;stroke-dasharray:none;stroke-opacity:1" /><path
     style="fill:none;fill-rule:evenodd;stroke:#000000;stroke-width:1088.39746094;stroke-linecap:round;stroke-linejoin:miter;stroke-miterlimit:4;stroke-dasharray:none;stroke-opacity:1"
     d="m 7055.5563,13771.364 0,-10097.7832"
     id="path4584"
     inkscape:connector-curvature="0"
     sodipodi:nodetypes="cc" /><path
     sodipodi:nodetypes="cc"
     inkscape:connector-curvature="0"
     id="path4586"
     d="m 3898.6695,7045.0618 6313.7735,-8.743"
     style="fill:none;fill-rule:evenodd;stroke:#000000;stroke-width:1088.39746094;stroke-linecap:round;stroke-linejoin:miter;stroke-miterlimit:4;stroke-dasharray:none;stroke-opacity:1" /><path
     style="fill:none;fill-rule:evenodd;stroke:#000000;stroke-width:1088.39746094;stroke-linecap:round;stroke-linejoin:miter;stroke-miterlimit:4;stroke-dasharray:none;stroke-opacity:1"
     d="m 2210.7037,10099.476 9689.7053,3.622"
     id="path4588"
     inkscape:connector-curvature="0"
     sodipodi:nodetypes="cc" /><g
     id="g4369"
     transform="translate(110.81755,0)"><path
       style="fill:#000000"
       inkscape:connector-curvature="0"
       id="path27"
       d="m 11661.377,1869.8548 c 0,-282.18 311.624,-424.497 457.622,-231.878 133.728,175.442 46.621,501.789 -212.248,501.789 -164.401,1.226 -245.374,-112.872 -245.374,-269.911 z m 177.896,-527.553 c -185.257,34.352 -287.087,66.25 -393.825,170.534 -345.976,337.389 -136.182,928.739 563.133,852.673 807.279,-88.334 700.541,-1186.381 -169.308,-1023.207 z"
       class="fil1" /><path
       style="fill:#000000"
       inkscape:connector-curvature="0"
       id="path29"
       d="m 6415.291,1569.2718 c 380.3289,-148.451 452.7141,469.89 160.7196,560.679 -395.0513,121.46 -430.6305,-456.395 -160.7196,-560.679 z m 11.0418,-223.29 c -193.8451,26.991 -283.4064,52.755 -399.9589,170.535 -95.6957,95.695 -182.8033,231.878 -164.4002,413.454 31.8985,321.44 363.1528,476.025 722.625,434.311 776.6072,-88.334 733.6669,-1147.121 -158.2659,-1018.3 z"
       class="fil1" /><path
       style="fill:#000000"
       inkscape:connector-curvature="0"
       id="path31"
       d="m 9527.8542,1590.1288 c 406.0932,-71.158 514.0578,341.069 104.2838,480.932 -95.6957,33.125 -98.1494,41.713 -103.0569,-53.982 -6.1344,-109.191 -11.0418,-322.666 -1.2269,-426.95 z m -343.5229,-176.669 -6.1344,926.285 c 391.3708,58.89 967.9991,-152.132 1063.6941,-473.571 160.72,-534.914 -677.2308,-515.284 -1057.5597,-515.284 l 0,62.57 z"
       class="fil1" /><path
       style="fill:#000000"
       inkscape:connector-curvature="0"
       id="path33"
       d="m 3594.7222,1474.8028 -1.2268,894.387 355.7916,0 1.2269,-457.622 c 131.2748,99.376 299.3557,386.463 422.0424,457.622 74.839,-73.612 176.669,-152.132 262.5497,-206.114 -69.9315,-111.645 -257.6422,-217.156 -330.0274,-334.935 l 309.1707,-288.314 c -36.8061,-58.889 -172.9884,-163.173 -249.0542,-196.299 l -409.7738,434.312 -6.1343,-447.807 -354.5648,0 0,144.77 z"
       class="fil1" /><path
       style="fill:#000000"
       inkscape:connector-curvature="0"
       id="path35"
       d="m 1960.5345,1729.9918 c 31.8986,45.394 107.9644,179.122 116.5524,240.466 l -121.4599,3.68 -41.7135,1.227 -77.2926,-6.134 123.9136,-239.239 z m -628.1562,515.284 288.3139,148.451 c 24.5373,-29.445 12.2687,-9.815 36.806,-52.755 103.0569,-174.215 -8.5881,-157.039 548.4098,-166.854 l 126.3674,213.475 c 77.2927,-18.403 242.9198,-112.872 305.4901,-164.4 l -661.2817,-953.277 c -76.0658,61.344 -604.8458,907.882 -644.1055,975.36 z"
       class="fil1" /><path
       style="fill:#000000"
       inkscape:connector-curvature="0"
       id="path37"
       d="m 10459.047,1357.0238 -9.815,991.309 693.18,20.857 -4.907,-250.281 -348.431,0 0,-161.947 287.087,-3.68 0,-228.198 -287.087,4.908 c -1.227,-85.881 -9.815,-99.377 14.723,-155.812 l 314.078,-13.496 -3.681,-225.744 -655.147,22.084 z"
       class="fil1" /><path
       style="fill:#000000"
       inkscape:connector-curvature="0"
       id="path39"
       d="m 3034.0437,2056.3388 c -89.5613,58.889 -163.1734,67.477 -304.2632,71.158 -8.588,90.788 28.218,147.224 35.5792,241.693 231.878,-6.135 506.6963,-120.233 599.9383,-251.508 224.5168,-314.078 -245.3736,-325.12 -307.9438,-476.025 62.5702,-82.2 153.3585,-80.973 289.5408,-80.973 l -42.9404,-230.651 c -143.5435,36.806 -474.7978,55.209 -591.3502,258.869 -155.8122,273.591 280.9527,307.944 321.4393,467.437 z"
       class="fil1" /><path
       style="fill:#000000"
       inkscape:connector-curvature="0"
       id="path41"
       d="m 5403.1252,2056.3388 c -87.1076,58.889 -165.6272,68.704 -301.8095,72.385 l 35.5792,239.239 c 234.3317,-8.588 499.3351,-115.326 596.2577,-250.281 226.9705,-317.759 -247.8273,-322.666 -307.9438,-476.025 61.3434,-84.654 153.3584,-80.973 290.7676,-80.973 l -44.1672,-230.651 c -149.6779,36.806 -474.7978,57.663 -590.1234,260.096 -72.3852,126.367 -1.2268,214.702 78.5196,274.818 95.6956,71.159 214.7018,80.973 242.9198,191.392 z"
       class="fil1" /><polygon
       transform="matrix(1.2268677,0,0,1.2268677,-2083.2213,-1786.2112)"
       style="fill:#000000"
       id="polygon43"
       points="7661,2625 7661,3370 8236,3390 8237,3167 7949,3167 7950,2557 7661,2557 "
       class="fil1" /><polygon
       transform="matrix(1.2268677,0,0,1.2268677,-2083.2213,-1786.2112)"
       style="fill:#000000"
       id="polygon45"
       points="8662,2557 8372,2557 8372,2642 8372,3370 8663,3370 "
       class="fil1" /></g></svg>